<svg xmlns="http://www.w3.org/2000/svg" xmlns:xlink="http://www.w3.org/1999/xlink" width="300" zoomAndPan="magnify" viewBox="0 0 224.87999 74.999997" height="100" preserveAspectRatio="xMidYMid meet" version="1.0"><defs><g/><clipPath id="65b05b18a7"><path d="M 131.011719 1.527344 L 173 1.527344 L 173 73.492188 L 131.011719 73.492188 Z M 131.011719 1.527344 " clip-rule="nonzero"/></clipPath><clipPath id="d0197d937c"><path d="M 154.746094 1.527344 L 223.175781 1.527344 L 223.175781 69.605469 L 154.746094 69.605469 Z M 154.746094 1.527344 " clip-rule="nonzero"/></clipPath></defs><g clip-path="url(#65b05b18a7)"><path fill="#000000" d="M 172.191406 73.011719 C 170.433594 73.332031 168.636719 73.492188 166.820312 73.492188 C 162.761719 73.492188 158.824219 72.691406 155.113281 71.117188 C 151.527344 69.601562 148.3125 67.429688 145.554688 64.660156 C 142.792969 61.894531 140.625 58.671875 139.109375 55.082031 C 137.539062 51.359375 136.742188 47.414062 136.742188 43.347656 L 136.742188 17.175781 L 131.054688 17.175781 L 142.875 1.570312 L 154.695312 17.175781 L 149.25 17.175781 L 149.25 43.347656 C 149.25 43.921875 149.277344 44.488281 149.332031 45.050781 L 149.332031 47.441406 C 149.332031 54.3125 152 60.769531 156.847656 65.628906 C 161.027344 69.820312 166.398438 72.386719 172.191406 73.011719 " fill-opacity="1" fill-rule="nonzero"/></g><g clip-path="url(#d0197d937c)"><path fill="#000000" d="M 202.03125 31.605469 L 196.898438 31.605469 L 196.898438 14.128906 L 202.03125 14.128906 C 206.796875 14.128906 210.671875 18.050781 210.671875 22.867188 C 210.671875 27.6875 206.796875 31.605469 202.03125 31.605469 Z M 217.015625 7.84375 C 213.027344 3.816406 207.707031 1.597656 202.03125 1.597656 L 196.898438 1.597656 L 184.394531 1.527344 L 184.394531 43.347656 C 184.394531 53.058594 176.511719 60.957031 166.820312 60.957031 C 162.1875 60.957031 157.964844 59.148438 154.820312 56.199219 C 158.207031 64.003906 165.976562 69.476562 174.996094 69.476562 C 179.097656 69.476562 182.941406 68.34375 186.230469 66.375 C 186.871094 65.832031 187.492188 65.261719 188.089844 64.660156 C 190.847656 61.894531 193.015625 58.671875 194.53125 55.082031 C 196 51.605469 196.792969 47.925781 196.886719 44.140625 L 202.03125 44.140625 C 207.707031 44.140625 213.027344 41.921875 217.015625 37.890625 C 220.988281 33.878906 223.175781 28.542969 223.175781 22.867188 C 223.175781 17.191406 220.988281 11.855469 217.015625 7.84375 " fill-opacity="1" fill-rule="nonzero"/></g><g fill="#000000" fill-opacity="1"><g transform="translate(5.523855, 54.282028)"><g><path d="M 16.699219 0.144531 L 23.5625 0.046875 L 24.570312 -0.382812 L 25.097656 -1.390625 L 25.097656 -6.238281 L 24.570312 -7.199219 L 23.5625 -7.628906 L 22.457031 -7.535156 L 21.546875 -7.679688 L 19.097656 -7.726562 L 17.515625 -7.535156 L 16.554688 -7.628906 L 15.5 -7.582031 L 14.585938 -7.726562 L 13.53125 -7.628906 L 12.523438 -8.109375 L 12.140625 -8.972656 L 12.140625 -11.996094 L 12.574219 -13.003906 L 13.4375 -13.53125 L 14.875 -13.578125 L 16.410156 -13.4375 L 18.234375 -13.53125 L 20.203125 -13.484375 L 21.160156 -13.578125 L 22.265625 -13.53125 L 23.226562 -13.914062 L 23.5625 -14.875 L 23.703125 -19.195312 L 23.226562 -20.539062 L 22.121094 -21.160156 L 19.289062 -21.160156 L 18.28125 -21.066406 L 16.265625 -21.210938 L 13.484375 -21.113281 L 12.476562 -21.546875 L 12.09375 -23.035156 L 12.09375 -24.519531 L 12.523438 -25.433594 L 13.578125 -25.816406 L 14.492188 -25.769531 L 15.402344 -25.960938 L 22.265625 -25.863281 L 23.175781 -25.914062 L 24.183594 -26.488281 L 24.664062 -27.351562 L 24.617188 -28.3125 L 24.664062 -29.269531 L 24.570312 -32.152344 L 24.136719 -33.0625 L 23.175781 -33.445312 L 22.167969 -33.445312 L 21.304688 -33.636719 L 17.417969 -33.589844 L 16.363281 -33.496094 L 15.402344 -33.589844 L 14.585938 -33.542969 L 13.628906 -33.636719 L 9.691406 -33.542969 L 8.734375 -33.6875 L 7.820312 -33.496094 L 6.957031 -33.589844 L 6 -33.496094 L 5.039062 -33.542969 L 4.03125 -33.160156 L 3.503906 -32.152344 L 3.597656 -30.328125 L 3.453125 -28.359375 L 3.597656 -27.304688 L 3.503906 -22.601562 L 3.648438 -21.59375 L 3.550781 -20.683594 L 3.503906 -16.746094 L 3.648438 -15.882812 L 3.597656 -8.109375 L 3.503906 -7.199219 L 3.648438 -6.238281 L 3.503906 -2.925781 L 3.597656 -1.871094 L 3.984375 -0.574219 L 5.421875 0.046875 L 8.878906 0.0976562 L 9.933594 0 L 10.796875 0.046875 L 12.765625 -0.0976562 L 13.675781 0.0976562 L 14.78125 0.144531 L 15.738281 0.046875 Z M 16.699219 0.144531 "/></g></g></g><g fill="#000000" fill-opacity="1"><g transform="translate(33.353486, 54.282028)"><g><path d="M 28.3125 0.0976562 L 30.136719 -0.046875 L 31.046875 0.046875 L 32.535156 0 L 33.878906 -0.238281 L 34.023438 -1.390625 L 33.6875 -2.496094 L 32.964844 -4.269531 L 31.671875 -6.765625 L 31 -8.542969 L 30.039062 -10.269531 L 28.214844 -14.636719 L 27.734375 -15.355469 L 27.257812 -16.265625 L 26.96875 -17.324219 L 26.535156 -18.042969 L 26.25 -18.808594 L 25.242188 -20.585938 L 24.90625 -21.59375 L 21.738281 -28.265625 L 21.449219 -29.222656 L 20.921875 -30.085938 L 20.632812 -30.949219 L 19.722656 -32.628906 L 18.90625 -33.496094 L 17.324219 -33.972656 L 15.789062 -33.445312 L 14.921875 -32.628906 L 14.492188 -31.816406 L 14.15625 -30.855469 L 13.722656 -30.183594 L 11.804688 -25.769531 L 11.277344 -25.046875 L 11.035156 -24.089844 L 10.507812 -23.175781 L 10.222656 -22.3125 L 5.328125 -12.042969 L 5.039062 -10.988281 L 4.558594 -10.269531 L 4.222656 -9.308594 L 3.359375 -7.773438 L 2.640625 -5.855469 L 2.113281 -5.183594 L 1.871094 -4.320312 L 0.910156 -2.398438 L 0.625 -1.441406 L 0.863281 -0.238281 L 1.824219 0.046875 L 3.695312 -0.046875 L 4.65625 0.046875 L 7.34375 -0.046875 L 8.445312 -0.382812 L 9.355469 -1.246094 L 10.222656 -2.832031 L 11.132812 -3.742188 L 12.140625 -4.269531 L 13.050781 -4.125 L 15.066406 -4.320312 L 15.929688 -4.175781 L 20.632812 -4.222656 L 21.496094 -4.125 L 22.554688 -4.269531 L 23.609375 -3.742188 L 24.519531 -2.976562 L 24.953125 -2.0625 L 25.242188 -1.199219 L 26.199219 -0.480469 L 27.304688 0 Z M 17.417969 -11.851562 L 16.460938 -12.042969 L 15.355469 -11.949219 L 14.585938 -12.285156 L 14.539062 -13.195312 L 16.796875 -18.378906 L 17.324219 -18.808594 L 17.996094 -18.425781 L 20.25 -13.148438 L 20.058594 -12.285156 L 19.339844 -11.902344 Z M 17.417969 -11.851562 "/></g></g></g><g fill="#000000" fill-opacity="1"><g transform="translate(68.524369, 54.282028)"><g><path d="M 12.910156 0.433594 L 16.699219 0.527344 L 17.660156 0.433594 L 18.617188 0.191406 L 19.578125 0.046875 L 20.539062 -0.335938 L 21.402344 -0.433594 L 22.3125 -0.863281 L 25.578125 -2.832031 L 26.96875 -4.269531 L 27.449219 -4.941406 L 27.976562 -6 L 28.265625 -6.863281 L 28.550781 -7.679688 L 28.839844 -10.078125 L 28.742188 -11.613281 L 28.023438 -14.394531 L 27.496094 -15.164062 L 26.25 -16.601562 L 25.382812 -17.371094 L 24.617188 -17.753906 L 23.753906 -18.28125 L 20.011719 -19.433594 L 19.050781 -19.578125 L 18.089844 -19.625 L 17.082031 -19.816406 L 15.691406 -19.816406 L 13.148438 -20.347656 L 11.371094 -21.210938 L 10.652344 -21.882812 L 10.460938 -23.320312 L 10.699219 -24.617188 L 11.277344 -25.242188 L 11.996094 -25.769531 L 12.765625 -26.199219 L 13.628906 -26.390625 L 15.164062 -26.441406 L 16.699219 -26.25 L 17.5625 -26.007812 L 18.425781 -25.433594 L 19.242188 -24.761719 L 19.960938 -23.800781 L 21.019531 -23.175781 L 23.273438 -23.371094 L 24.570312 -23.273438 L 25.527344 -23.273438 L 26.390625 -23.175781 L 27.304688 -23.847656 L 27.6875 -24.664062 L 27.496094 -25.578125 L 27.398438 -26.488281 L 26.054688 -28.984375 L 25 -30.421875 L 21.832031 -32.628906 L 19.144531 -33.542969 L 17.273438 -33.925781 L 13.578125 -34.023438 L 12.523438 -33.734375 L 11.566406 -33.6875 L 10.699219 -33.542969 L 8.878906 -32.964844 L 7.246094 -32.007812 L 4.941406 -30.421875 L 3.261719 -28.167969 L 2.398438 -25.527344 L 2.253906 -23.175781 L 2.304688 -21.691406 L 2.640625 -19.769531 L 3.40625 -18.089844 L 5.183594 -15.882812 L 8.445312 -14.109375 L 10.171875 -13.53125 L 17.707031 -12.667969 L 19.433594 -11.851562 L 20.058594 -11.277344 L 20.347656 -10.078125 L 19.960938 -8.878906 L 19.339844 -8.15625 L 17.707031 -7.4375 L 16.21875 -7.34375 L 15.355469 -7.199219 L 12.910156 -7.4375 L 12.09375 -7.871094 L 11.277344 -8.398438 L 9.691406 -10.125 L 8.734375 -10.507812 L 7.871094 -10.414062 L 6.957031 -10.558594 L 3.261719 -10.363281 L 2.398438 -9.980469 L 2.015625 -8.972656 L 2.160156 -8.011719 L 2.351562 -7.054688 L 2.640625 -6.191406 L 3.550781 -4.414062 L 4.222656 -3.789062 L 4.847656 -3.070312 L 6.527344 -2.015625 L 7.199219 -1.296875 L 8.109375 -0.863281 L 9.070312 -0.574219 L 10.941406 0.0976562 Z M 12.910156 0.433594 "/></g></g></g><g fill="#000000" fill-opacity="1"><g transform="translate(99.472825, 54.282028)"><g><path d="M 16.699219 0.144531 L 23.5625 0.046875 L 24.570312 -0.382812 L 25.097656 -1.390625 L 25.097656 -6.238281 L 24.570312 -7.199219 L 23.5625 -7.628906 L 22.457031 -7.535156 L 21.546875 -7.679688 L 19.097656 -7.726562 L 17.515625 -7.535156 L 16.554688 -7.628906 L 15.5 -7.582031 L 14.585938 -7.726562 L 13.53125 -7.628906 L 12.523438 -8.109375 L 12.140625 -8.972656 L 12.140625 -11.996094 L 12.574219 -13.003906 L 13.4375 -13.53125 L 14.875 -13.578125 L 16.410156 -13.4375 L 18.234375 -13.53125 L 20.203125 -13.484375 L 21.160156 -13.578125 L 22.265625 -13.53125 L 23.226562 -13.914062 L 23.5625 -14.875 L 23.703125 -19.195312 L 23.226562 -20.539062 L 22.121094 -21.160156 L 19.289062 -21.160156 L 18.28125 -21.066406 L 16.265625 -21.210938 L 13.484375 -21.113281 L 12.476562 -21.546875 L 12.09375 -23.035156 L 12.09375 -24.519531 L 12.523438 -25.433594 L 13.578125 -25.816406 L 14.492188 -25.769531 L 15.402344 -25.960938 L 22.265625 -25.863281 L 23.175781 -25.914062 L 24.183594 -26.488281 L 24.664062 -27.351562 L 24.617188 -28.3125 L 24.664062 -29.269531 L 24.570312 -32.152344 L 24.136719 -33.0625 L 23.175781 -33.445312 L 22.167969 -33.445312 L 21.304688 -33.636719 L 17.417969 -33.589844 L 16.363281 -33.496094 L 15.402344 -33.589844 L 14.585938 -33.542969 L 13.628906 -33.636719 L 9.691406 -33.542969 L 8.734375 -33.6875 L 7.820312 -33.496094 L 6.957031 -33.589844 L 6 -33.496094 L 5.039062 -33.542969 L 4.03125 -33.160156 L 3.503906 -32.152344 L 3.597656 -30.328125 L 3.453125 -28.359375 L 3.597656 -27.304688 L 3.503906 -22.601562 L 3.648438 -21.59375 L 3.550781 -20.683594 L 3.503906 -16.746094 L 3.648438 -15.882812 L 3.597656 -8.109375 L 3.503906 -7.199219 L 3.648438 -6.238281 L 3.503906 -2.925781 L 3.597656 -1.871094 L 3.984375 -0.574219 L 5.421875 0.046875 L 8.878906 0.0976562 L 9.933594 0 L 10.796875 0.046875 L 12.765625 -0.0976562 L 13.675781 0.0976562 L 14.78125 0.144531 L 15.738281 0.046875 Z M 16.699219 0.144531 "/></g></g></g></svg>