<svg xmlns="http://www.w3.org/2000/svg" xmlns:xlink="http://www.w3.org/1999/xlink" width="300" zoomAndPan="magnify" viewBox="0 0 224.87999 74.999997" height="100" preserveAspectRatio="xMidYMid meet" version="1.0"><defs><g/><clipPath id="71731aded2"><path d="M 131.011719 1.527344 L 173 1.527344 L 173 73.492188 L 131.011719 73.492188 Z M 131.011719 1.527344 " clip-rule="nonzero"/></clipPath><clipPath id="c1da72fe06"><path d="M 154.792969 1.527344 L 223.214844 1.527344 L 223.214844 69.582031 L 154.792969 69.582031 Z M 154.792969 1.527344 " clip-rule="nonzero"/></clipPath></defs><g clip-path="url(#71731aded2)"><path fill="#ffffff" d="M 172.269531 72.988281 C 170.507812 73.308594 168.710938 73.46875 166.890625 73.46875 C 162.824219 73.46875 158.875 72.667969 155.15625 71.097656 C 151.566406 69.578125 148.347656 67.40625 145.582031 64.640625 C 142.816406 61.875 140.644531 58.652344 139.125 55.0625 C 137.550781 51.34375 136.753906 47.398438 136.753906 43.332031 L 136.753906 17.167969 L 131.054688 17.167969 L 142.894531 1.570312 L 154.738281 17.167969 L 149.285156 17.167969 L 149.285156 43.332031 C 149.285156 43.90625 149.3125 44.476562 149.367188 45.035156 L 149.367188 47.425781 C 149.367188 54.292969 152.039062 60.75 156.898438 65.609375 C 161.085938 69.796875 166.464844 72.363281 172.269531 72.988281 " fill-opacity="1" fill-rule="nonzero"/></g><g clip-path="url(#c1da72fe06)"><path fill="#ffffff" d="M 202.167969 31.597656 L 197.023438 31.597656 L 197.023438 14.125 L 202.167969 14.125 C 206.941406 14.125 210.824219 18.042969 210.824219 22.859375 C 210.824219 27.675781 206.941406 31.597656 202.167969 31.597656 Z M 217.179688 7.839844 C 213.183594 3.816406 207.851562 1.597656 202.167969 1.597656 L 197.023438 1.597656 L 184.496094 1.527344 L 184.496094 43.332031 C 184.496094 53.039062 176.597656 60.9375 166.890625 60.9375 C 162.246094 60.9375 158.015625 59.132812 154.867188 56.183594 C 158.257812 63.984375 166.042969 69.453125 175.078125 69.453125 C 179.1875 69.453125 183.039062 68.324219 186.335938 66.355469 C 186.976562 65.8125 187.597656 65.238281 188.199219 64.640625 C 190.964844 61.875 193.136719 58.652344 194.652344 55.0625 C 196.125 51.585938 196.917969 47.910156 197.015625 44.125 L 202.167969 44.125 C 207.851562 44.125 213.183594 41.90625 217.179688 37.878906 C 221.160156 33.871094 223.351562 28.535156 223.351562 22.859375 C 223.351562 17.183594 221.160156 11.851562 217.179688 7.839844 " fill-opacity="1" fill-rule="nonzero"/></g><g fill="#ffffff" fill-opacity="1"><g transform="translate(5.523855, 54.282027)"><g><path d="M 16.699219 0.144531 L 23.5625 0.046875 L 24.570312 -0.382812 L 25.097656 -1.390625 L 25.097656 -6.238281 L 24.570312 -7.199219 L 23.5625 -7.628906 L 22.457031 -7.535156 L 21.546875 -7.679688 L 19.097656 -7.726562 L 17.515625 -7.535156 L 16.554688 -7.628906 L 15.5 -7.582031 L 14.585938 -7.726562 L 13.53125 -7.628906 L 12.523438 -8.109375 L 12.140625 -8.972656 L 12.140625 -11.996094 L 12.574219 -13.003906 L 13.4375 -13.53125 L 14.875 -13.578125 L 16.410156 -13.4375 L 18.234375 -13.53125 L 20.203125 -13.484375 L 21.160156 -13.578125 L 22.265625 -13.53125 L 23.226562 -13.914062 L 23.5625 -14.875 L 23.703125 -19.195312 L 23.226562 -20.539062 L 22.121094 -21.160156 L 19.289062 -21.160156 L 18.28125 -21.066406 L 16.265625 -21.210938 L 13.484375 -21.113281 L 12.476562 -21.546875 L 12.09375 -23.035156 L 12.09375 -24.519531 L 12.523438 -25.433594 L 13.578125 -25.816406 L 14.492188 -25.769531 L 15.402344 -25.960938 L 22.265625 -25.863281 L 23.175781 -25.914062 L 24.183594 -26.488281 L 24.664062 -27.351562 L 24.617188 -28.3125 L 24.664062 -29.269531 L 24.570312 -32.152344 L 24.136719 -33.0625 L 23.175781 -33.445312 L 22.167969 -33.445312 L 21.304688 -33.636719 L 17.417969 -33.589844 L 16.363281 -33.496094 L 15.402344 -33.589844 L 14.585938 -33.542969 L 13.628906 -33.636719 L 9.691406 -33.542969 L 8.734375 -33.6875 L 7.820312 -33.496094 L 6.957031 -33.589844 L 6 -33.496094 L 5.039062 -33.542969 L 4.03125 -33.160156 L 3.503906 -32.152344 L 3.597656 -30.328125 L 3.453125 -28.359375 L 3.597656 -27.304688 L 3.503906 -22.601562 L 3.648438 -21.59375 L 3.550781 -20.683594 L 3.503906 -16.746094 L 3.648438 -15.882812 L 3.597656 -8.109375 L 3.503906 -7.199219 L 3.648438 -6.238281 L 3.503906 -2.925781 L 3.597656 -1.871094 L 3.984375 -0.574219 L 5.421875 0.046875 L 8.878906 0.0976562 L 9.933594 0 L 10.796875 0.046875 L 12.765625 -0.0976562 L 13.675781 0.0976562 L 14.78125 0.144531 L 15.738281 0.046875 Z M 16.699219 0.144531 "/></g></g></g><g fill="#ffffff" fill-opacity="1"><g transform="translate(33.353486, 54.282027)"><g><path d="M 28.3125 0.0976562 L 30.136719 -0.046875 L 31.046875 0.046875 L 32.535156 0 L 33.878906 -0.238281 L 34.023438 -1.390625 L 33.6875 -2.496094 L 32.964844 -4.269531 L 31.671875 -6.765625 L 31 -8.542969 L 30.039062 -10.269531 L 28.214844 -14.636719 L 27.734375 -15.355469 L 27.257812 -16.265625 L 26.96875 -17.324219 L 26.535156 -18.042969 L 26.25 -18.808594 L 25.242188 -20.585938 L 24.90625 -21.59375 L 21.738281 -28.265625 L 21.449219 -29.222656 L 20.921875 -30.085938 L 20.632812 -30.949219 L 19.722656 -32.628906 L 18.90625 -33.496094 L 17.324219 -33.972656 L 15.789062 -33.445312 L 14.921875 -32.628906 L 14.492188 -31.816406 L 14.15625 -30.855469 L 13.722656 -30.183594 L 11.804688 -25.769531 L 11.277344 -25.046875 L 11.035156 -24.089844 L 10.507812 -23.175781 L 10.222656 -22.3125 L 5.328125 -12.042969 L 5.039062 -10.988281 L 4.558594 -10.269531 L 4.222656 -9.308594 L 3.359375 -7.773438 L 2.640625 -5.855469 L 2.113281 -5.183594 L 1.871094 -4.320312 L 0.910156 -2.398438 L 0.625 -1.441406 L 0.863281 -0.238281 L 1.824219 0.046875 L 3.695312 -0.046875 L 4.65625 0.046875 L 7.34375 -0.046875 L 8.445312 -0.382812 L 9.355469 -1.246094 L 10.222656 -2.832031 L 11.132812 -3.742188 L 12.140625 -4.269531 L 13.050781 -4.125 L 15.066406 -4.320312 L 15.929688 -4.175781 L 20.632812 -4.222656 L 21.496094 -4.125 L 22.554688 -4.269531 L 23.609375 -3.742188 L 24.519531 -2.976562 L 24.953125 -2.0625 L 25.242188 -1.199219 L 26.199219 -0.480469 L 27.304688 0 Z M 17.417969 -11.851562 L 16.460938 -12.042969 L 15.355469 -11.949219 L 14.585938 -12.285156 L 14.539062 -13.195312 L 16.796875 -18.378906 L 17.324219 -18.808594 L 17.996094 -18.425781 L 20.25 -13.148438 L 20.058594 -12.285156 L 19.339844 -11.902344 Z M 17.417969 -11.851562 "/></g></g></g><g fill="#ffffff" fill-opacity="1"><g transform="translate(68.524369, 54.282027)"><g><path d="M 12.910156 0.433594 L 16.699219 0.527344 L 17.660156 0.433594 L 18.617188 0.191406 L 19.578125 0.046875 L 20.539062 -0.335938 L 21.402344 -0.433594 L 22.3125 -0.863281 L 25.578125 -2.832031 L 26.96875 -4.269531 L 27.449219 -4.941406 L 27.976562 -6 L 28.265625 -6.863281 L 28.550781 -7.679688 L 28.839844 -10.078125 L 28.742188 -11.613281 L 28.023438 -14.394531 L 27.496094 -15.164062 L 26.25 -16.601562 L 25.382812 -17.371094 L 24.617188 -17.753906 L 23.753906 -18.28125 L 20.011719 -19.433594 L 19.050781 -19.578125 L 18.089844 -19.625 L 17.082031 -19.816406 L 15.691406 -19.816406 L 13.148438 -20.347656 L 11.371094 -21.210938 L 10.652344 -21.882812 L 10.460938 -23.320312 L 10.699219 -24.617188 L 11.277344 -25.242188 L 11.996094 -25.769531 L 12.765625 -26.199219 L 13.628906 -26.390625 L 15.164062 -26.441406 L 16.699219 -26.25 L 17.5625 -26.007812 L 18.425781 -25.433594 L 19.242188 -24.761719 L 19.960938 -23.800781 L 21.019531 -23.175781 L 23.273438 -23.371094 L 24.570312 -23.273438 L 25.527344 -23.273438 L 26.390625 -23.175781 L 27.304688 -23.847656 L 27.6875 -24.664062 L 27.496094 -25.578125 L 27.398438 -26.488281 L 26.054688 -28.984375 L 25 -30.421875 L 21.832031 -32.628906 L 19.144531 -33.542969 L 17.273438 -33.925781 L 13.578125 -34.023438 L 12.523438 -33.734375 L 11.566406 -33.6875 L 10.699219 -33.542969 L 8.878906 -32.964844 L 7.246094 -32.007812 L 4.941406 -30.421875 L 3.261719 -28.167969 L 2.398438 -25.527344 L 2.253906 -23.175781 L 2.304688 -21.691406 L 2.640625 -19.769531 L 3.40625 -18.089844 L 5.183594 -15.882812 L 8.445312 -14.109375 L 10.171875 -13.53125 L 17.707031 -12.667969 L 19.433594 -11.851562 L 20.058594 -11.277344 L 20.347656 -10.078125 L 19.960938 -8.878906 L 19.339844 -8.15625 L 17.707031 -7.4375 L 16.21875 -7.34375 L 15.355469 -7.199219 L 12.910156 -7.4375 L 12.09375 -7.871094 L 11.277344 -8.398438 L 9.691406 -10.125 L 8.734375 -10.507812 L 7.871094 -10.414062 L 6.957031 -10.558594 L 3.261719 -10.363281 L 2.398438 -9.980469 L 2.015625 -8.972656 L 2.160156 -8.011719 L 2.351562 -7.054688 L 2.640625 -6.191406 L 3.550781 -4.414062 L 4.222656 -3.789062 L 4.847656 -3.070312 L 6.527344 -2.015625 L 7.199219 -1.296875 L 8.109375 -0.863281 L 9.070312 -0.574219 L 10.941406 0.0976562 Z M 12.910156 0.433594 "/></g></g></g><g fill="#ffffff" fill-opacity="1"><g transform="translate(99.472825, 54.282027)"><g><path d="M 16.699219 0.144531 L 23.5625 0.046875 L 24.570312 -0.382812 L 25.097656 -1.390625 L 25.097656 -6.238281 L 24.570312 -7.199219 L 23.5625 -7.628906 L 22.457031 -7.535156 L 21.546875 -7.679688 L 19.097656 -7.726562 L 17.515625 -7.535156 L 16.554688 -7.628906 L 15.5 -7.582031 L 14.585938 -7.726562 L 13.53125 -7.628906 L 12.523438 -8.109375 L 12.140625 -8.972656 L 12.140625 -11.996094 L 12.574219 -13.003906 L 13.4375 -13.53125 L 14.875 -13.578125 L 16.410156 -13.4375 L 18.234375 -13.53125 L 20.203125 -13.484375 L 21.160156 -13.578125 L 22.265625 -13.53125 L 23.226562 -13.914062 L 23.5625 -14.875 L 23.703125 -19.195312 L 23.226562 -20.539062 L 22.121094 -21.160156 L 19.289062 -21.160156 L 18.28125 -21.066406 L 16.265625 -21.210938 L 13.484375 -21.113281 L 12.476562 -21.546875 L 12.09375 -23.035156 L 12.09375 -24.519531 L 12.523438 -25.433594 L 13.578125 -25.816406 L 14.492188 -25.769531 L 15.402344 -25.960938 L 22.265625 -25.863281 L 23.175781 -25.914062 L 24.183594 -26.488281 L 24.664062 -27.351562 L 24.617188 -28.3125 L 24.664062 -29.269531 L 24.570312 -32.152344 L 24.136719 -33.0625 L 23.175781 -33.445312 L 22.167969 -33.445312 L 21.304688 -33.636719 L 17.417969 -33.589844 L 16.363281 -33.496094 L 15.402344 -33.589844 L 14.585938 -33.542969 L 13.628906 -33.636719 L 9.691406 -33.542969 L 8.734375 -33.6875 L 7.820312 -33.496094 L 6.957031 -33.589844 L 6 -33.496094 L 5.039062 -33.542969 L 4.03125 -33.160156 L 3.503906 -32.152344 L 3.597656 -30.328125 L 3.453125 -28.359375 L 3.597656 -27.304688 L 3.503906 -22.601562 L 3.648438 -21.59375 L 3.550781 -20.683594 L 3.503906 -16.746094 L 3.648438 -15.882812 L 3.597656 -8.109375 L 3.503906 -7.199219 L 3.648438 -6.238281 L 3.503906 -2.925781 L 3.597656 -1.871094 L 3.984375 -0.574219 L 5.421875 0.046875 L 8.878906 0.0976562 L 9.933594 0 L 10.796875 0.046875 L 12.765625 -0.0976562 L 13.675781 0.0976562 L 14.78125 0.144531 L 15.738281 0.046875 Z M 16.699219 0.144531 "/></g></g></g></svg>